<?xml version="1.0" encoding="UTF-8" standalone="no"?>
<!DOCTYPE svg PUBLIC "-//W3C//DTD SVG 1.1//EN" "http://www.w3.org/Graphics/SVG/1.1/DTD/svg11.dtd">
<svg version="1.1" xmlns="http://www.w3.org/2000/svg" xmlns:xlink="http://www.w3.org/1999/xlink" preserveAspectRatio="xMidYMid meet" viewBox="0 0 640 640" width="1000" height="1000"><defs><path d="M557.28 25.85C557.27 25.85 557.26 25.85 557.25 25.85C507.87 25.91 112.87 26.42 63.5 26.48C55.97 26.49 48.89 29.23 43.57 34.19C38.25 39.16 35.33 45.76 35.34 52.77C35.38 78.6 35.68 285.24 35.72 311.08C35.73 318.09 38.67 324.68 44.01 329.63C49.33 334.57 56.4 337.29 63.92 337.29C63.93 337.29 63.95 337.29 63.96 337.29C113.33 337.23 508.33 336.72 557.7 336.66C573.25 336.64 585.88 324.85 585.86 310.37C585.84 293.15 585.71 207.05 585.48 52.07C577.04 34.59 567.64 25.85 557.28 25.85ZM310.62 191.74L94.52 52.69L526.31 52.14L310.62 191.74ZM529.75 310.44L91.08 311.01C168.31 255.25 211.21 224.28 219.79 218.08C225.94 213.64 227.06 205.39 222.29 199.66C217.51 193.93 208.66 192.89 202.5 197.33C193.26 204.01 147.06 237.36 63.9 297.41L63.55 64.69C207 156.98 286.69 208.25 302.63 218.51C305.04 220.06 307.84 220.83 310.64 220.83C313.46 220.83 316.27 220.05 318.69 218.49C334.6 208.19 414.14 156.71 557.3 64.06L557.66 297.37C474.53 237.35 428.35 204 419.11 197.33C412.96 192.89 404.1 193.93 399.33 199.66C394.56 205.39 395.68 213.64 401.83 218.08C418.89 230.4 461.53 261.18 529.75 310.44Z" id="aG0h7U1eH"></path><path d="M411.73 176.23C411.73 227.43 366.41 268.99 310.6 268.99C254.79 268.99 209.47 227.43 209.47 176.23C209.47 125.03 254.79 83.46 310.6 83.46C366.41 83.46 411.73 125.03 411.73 176.23Z" id="d6seq39tPR"></path><path d="M342.38 132.44C339.81 131.78 338.32 129.14 339.04 126.53C339.76 123.93 342.42 122.35 344.99 123.01C347.56 123.67 349.05 126.32 348.33 128.92C347.61 131.53 344.95 133.1 342.38 132.44Z" id="etaumNbiq"></path><path d="M378.43 224.28C375.99 221.41 373.12 216.88 370.93 209.95C377.22 203.17 380.14 194.65 379.62 184.53C379.59 177.33 374.04 170.17 368.16 162.6C356.58 147.68 350.57 137.88 364.71 127.58C367.01 125.9 368.19 123.42 367.87 120.93C367.56 118.55 365.97 116.56 363.49 115.44C359.12 113.47 354.44 112.47 349.58 112.47C347.4 112.47 345.18 112.68 342.96 113.09C326.01 116.2 314.25 129.96 315.45 145.19C315.46 145.31 315.52 145.98 315.53 146.06C316.79 159.71 318.15 175.13 306.79 187.44C306.75 187.48 306.45 187.81 306.41 187.86C305.04 189.36 302.48 192.16 298.65 194.89C293.66 198.44 287.98 201.07 286.35 201.79C283.06 203.25 280.31 204 278.18 204C274.23 204 271.02 201.22 271.02 197.8C271.02 196.14 271.77 194.58 273.12 193.41C273.32 193.26 274.19 192.63 274.96 192.09C277.69 190.14 280.03 188.45 281.06 187.43C285.82 182.74 287.26 178.28 288.78 173.56C290.4 168.57 292.06 163.4 298.12 156.94C298.95 156.06 299.01 154.82 298.28 153.89C297.55 152.96 296.2 152.55 294.95 152.88C294.38 153.04 280.86 156.75 267.13 164.31C264.69 165.65 262.41 167.03 260.27 168.44C247.97 154.62 230.01 152.38 229.22 152.29C227.99 152.15 226.79 152.69 226.22 153.64C225.64 154.59 225.81 155.75 226.64 156.54C226.76 156.66 238.96 168.6 238.55 190.2C238.49 193.92 238.51 197.37 238.63 200.45C238.65 207.96 240.99 214.46 245.6 219.77C249.48 224.23 254.9 227.71 261.27 229.82C266.52 231.56 274.15 232.44 283.94 232.44C301.64 232.44 320.25 229.64 323.8 229.08C332.34 227.73 339.79 226.05 346.22 224.01C354.5 229.54 366.78 234.81 383.6 234.93C383.8 234.94 384.7 234.93 384.7 234.93C386.13 234.93 387.35 234.03 387.59 232.81C387.83 231.59 387.03 230.4 385.68 229.98C385.65 229.97 382.24 228.75 378.43 224.28ZM255.7 171.7C252.64 174.04 249.98 176.47 247.73 178.96C246.42 180.41 245.22 181.91 244.19 183.41C243.12 172.37 239.11 164.19 235.79 159.13C241.51 160.98 249.48 164.66 255.7 171.7ZM283.94 227.33C274.88 227.33 267.96 226.56 263.37 225.04C257.71 223.17 244.53 217.01 244.53 200.38C244.53 179.38 273.36 166.05 288.16 160.6C285.45 164.9 284.22 168.7 283.1 172.19C281.7 176.51 280.5 180.24 276.63 184.06C275.83 184.85 272.82 186.99 271.21 188.14C269.89 189.08 269.29 189.51 268.97 189.78C266.49 191.92 265.12 194.77 265.12 197.8C265.12 204.04 270.98 209.11 278.18 209.11C281.3 209.11 284.85 208.2 289.05 206.34C290.8 205.56 296.96 202.71 302.4 198.84C306.71 195.77 309.64 192.57 311.04 191.03C311.08 190.99 311.36 190.67 311.4 190.63C324.2 176.76 322.7 159.58 321.41 145.7C321.4 145.6 321.34 144.88 321.33 144.74C320.38 132.08 330.14 120.67 344.19 118.09C346 117.76 347.81 117.59 349.58 117.59C353.48 117.59 357.25 118.39 360.77 119.98C361.68 120.39 361.94 121.03 362 121.49C362.1 122.28 361.7 123.09 360.92 123.66C352.3 129.94 349.14 137.04 351.27 145.36C353.04 152.29 358.24 158.98 363.26 165.45C368.46 172.16 373.39 178.51 373.71 184.04C373.72 184.22 373.75 185.13 373.75 185.34C374.01 192.26 372.51 198.16 369.19 203.15C368.7 200.69 368.29 198.01 367.99 195.09C367.92 184.86 358.29 176.56 346.47 176.56C334.6 176.56 324.94 184.92 324.94 195.21C324.94 199 326.25 202.65 328.73 205.77C329.46 207.11 333.23 213.61 341.07 220.15C335.7 221.67 329.61 222.97 322.74 224.05C319.28 224.6 301.13 227.33 283.94 227.33ZM334 203.46C333.92 203.3 333.82 203.15 333.71 203.01C331.83 200.72 330.84 198.02 330.84 195.21C330.84 187.74 337.85 181.67 346.47 181.67C355.08 181.67 362.09 187.74 362.09 195.21C362.09 195.28 362.1 195.35 362.1 195.42C363.95 214.02 370.24 224.05 375.56 229.32C364.05 227.94 353.96 223.72 345.47 216.73C337.53 210.18 334.03 203.52 334 203.46Z" id="c3RsxupO5A"></path></defs><g><g><g><use xlink:href="#aG0h7U1eH" opacity="1" fill="#61dafb" fill-opacity="1"></use><g><use xlink:href="#aG0h7U1eH" opacity="1" fill-opacity="0" stroke="#000000" stroke-width="1" stroke-opacity="0"></use></g></g><g><use xlink:href="#d6seq39tPR" opacity="1" fill="#61dafb" fill-opacity="1"></use></g><g><use xlink:href="#etaumNbiq" opacity="1" fill="#282c34" fill-opacity="1"></use><g><use xlink:href="#etaumNbiq" opacity="1" fill-opacity="0" stroke="#000000" stroke-width="1" stroke-opacity="0"></use></g></g><g><use xlink:href="#c3RsxupO5A" opacity="1" fill="#282c34" fill-opacity="1"></use><g><use xlink:href="#c3RsxupO5A" opacity="1" fill-opacity="0" stroke="#000000" stroke-width="1" stroke-opacity="0"></use></g></g></g></g></svg>